<svg width="89" height="85" viewBox="0 0 89 85" fill="none" xmlns="http://www.w3.org/2000/svg">
<g clip-path="url(#clip0)">
<path d="M5.1335 42.8528L46.8528 1.13351L88.5721 42.8528L46.8528 84.5721L5.1335 42.8528Z" stroke="#C0A97A"/>
<path d="M0.707107 42.4264L42.4264 0.707104L84.1457 42.4264L42.4264 84.1457L0.707107 42.4264Z" stroke="black"/>
<path d="M36.928 35.2H43.576C45.32 35.2 46.864 35.56 48.208 36.28C49.568 37 50.624 38 51.376 39.28C52.128 40.544 52.504 41.984 52.504 43.6C52.504 45.216 52.128 46.664 51.376 47.944C50.624 49.208 49.568 50.2 48.208 50.92C46.864 51.64 45.32 52 43.576 52H36.928V35.2ZM43.48 50.896C45.032 50.896 46.4 50.592 47.584 49.984C48.768 49.36 49.68 48.496 50.32 47.392C50.96 46.288 51.28 45.024 51.28 43.6C51.28 42.176 50.96 40.912 50.32 39.808C49.68 38.704 48.768 37.848 47.584 37.24C46.4 36.616 45.032 36.304 43.48 36.304H38.152V50.896H43.48Z" fill="black"/>
</g>
<defs>
<clipPath id="clip0">
<rect width="89" height="85" fill="white"/>
</clipPath>
</defs>
</svg>
